<svg xmlns="http://www.w3.org/2000/svg" viewBox="0 0 900 620" role="img" aria-labelledby="t d">
<title id="t">Entrepreneurship backed by expert insight</title>
<desc id="d">An abstract illustration of entrepreneurship, expertise, governance and responsible technology.</desc>
<defs>
  <linearGradient id="bg" x1="0" y1="0" x2="1" y2="1"><stop offset="0" stop-color="#fff8e8"/><stop offset=".5" stop-color="#eef6ff"/><stop offset="1" stop-color="#f5f0ff"/></linearGradient>
  <filter id="shadow" x="-20%" y="-20%" width="140%" height="140%"><feDropShadow dx="0" dy="14" stdDeviation="18" flood-color="#163c62" flood-opacity=".13"/></filter>
</defs>
<rect x="10" y="10" width="880" height="600" rx="44" fill="url(#bg)"/>
<g filter="url(#shadow)">
  <rect x="75" y="110" width="210" height="180" rx="28" fill="#fff"/>
  <rect x="345" y="95" width="210" height="210" rx="30" fill="#fff"/>
  <rect x="615" y="135" width="210" height="170" rx="28" fill="#fff"/>
  <rect x="215" y="355" width="470" height="155" rx="30" fill="#fff"/>
</g>
<g fill="none" stroke-linecap="round">
  <path d="M180 230v-52l35-28 35 28v52" stroke="#d59a1a" stroke-width="14"/>
  <path d="M395 245l55-105 55 105M420 205h60" stroke="#2364c4" stroke-width="13"/>
  <path d="M665 225h110M680 195h80" stroke="#10a37f" stroke-width="13"/>
  <path d="M285 435h330M285 468h245" stroke="#8b5bd7" stroke-width="13"/>
</g>
<circle cx="450" cy="420" r="34" fill="#d9468f"/>
<path d="M450 397v46M427 420h46" stroke="#fff" stroke-width="8" stroke-linecap="round"/>
<g font-family="Arial, sans-serif" font-weight="700" fill="#20324b">
  <text x="105" y="145" font-size="17">ENTREPRENEURSHIP</text>
  <text x="375" y="130" font-size="17">EXPERTISE</text>
  <text x="650" y="170" font-size="17">GOVERNANCE</text>
  <text x="255" y="395" font-size="18">RESPONSIBLE TECHNOLOGY · PRACTICAL INSIGHT</text>
</g>
</svg>